<svg xmlns="http://www.w3.org/2000/svg" width="3000" height="200" viewBox="0 0 3000 200" preserveAspectRatio="none">
  <defs>
    <linearGradient id="blackprint-gradient" x1="0" y1="0" x2="1" y2="1">
      <stop offset="0" stop-color="#0b0d0f"/>
      <stop offset="0.42" stop-color="#17151d"/>
      <stop offset="0.72" stop-color="#172225"/>
      <stop offset="1" stop-color="#0b0d0f"/>
    </linearGradient>
    <linearGradient id="blackprint-wash" x1="0" y1="0" x2="1" y2="1">
      <stop offset="0" stop-color="#776490" stop-opacity="0.22"/>
      <stop offset="1" stop-color="#6caaa7" stop-opacity="0.16"/>
    </linearGradient>
    <linearGradient id="soft-vignette" x1="0" y1="0" x2="0" y2="1">
      <stop offset="0" stop-color="#ffffff" stop-opacity="0.09"/>
      <stop offset="0.52" stop-color="#000000" stop-opacity="0"/>
      <stop offset="1" stop-color="#000000" stop-opacity="0.42"/>
    </linearGradient>
    <pattern id="grid" width="36" height="36" patternUnits="userSpaceOnUse">
      <path d="M36 0H0V36" fill="none" stroke="#d8e4e3" stroke-opacity="0.055" stroke-width="1"/>
    </pattern>
    <pattern id="ticks" width="128" height="24" patternUnits="userSpaceOnUse">
      <path d="M8 14h34M70 14h18M108 14h10" stroke="#ffffff" stroke-opacity="0.09" stroke-linecap="square"/>
    </pattern>
  </defs>
  <rect width="3000" height="200" fill="url(#blackprint-gradient)"/>
  <rect width="3000" height="200" fill="url(#blackprint-wash)"/>
  <rect width="3000" height="200" fill="url(#grid)"/>
  <rect width="3000" height="200" fill="url(#ticks)" opacity="0.6"/>
  <rect width="3000" height="200" fill="#0b0d0f" opacity="0.12"/>
  <rect width="3000" height="200" fill="url(#soft-vignette)"/>
  <path d="M0 166C240 128 374 140 540 112C744 78 882 64 1110 82C1340 100 1452 152 1688 132C1938 110 2036 42 2298 54C2506 64 2724 114 3000 82V200H0Z" fill="#0b0d0f" opacity="0.28"/>
  <path d="M0 174H3000" stroke="#82bfbc" stroke-opacity="0.2"/>
</svg>
