<svg xmlns="http://www.w3.org/2000/svg" viewBox="0 0 400 300" role="img" aria-label="aero theme thumbnail">
  <rect width="400" height="300" fill="#07141f"/>
  <path d="M0 0h400v300H0z" fill="url(#bg)"/>
  <defs>
    <linearGradient id="bg" x1="0" y1="0" x2="1" y2="1">
      <stop stop-color="#10294a"/>
      <stop offset=".46" stop-color="#0b5870"/>
      <stop offset="1" stop-color="#06151d"/>
    </linearGradient>
    <linearGradient id="glass" x1="0" y1="0" x2="0" y2="1">
      <stop stop-color="#ffffff" stop-opacity=".32"/>
      <stop offset=".44" stop-color="#58c8e2" stop-opacity=".26"/>
      <stop offset="1" stop-color="#061b27" stop-opacity=".76"/>
    </linearGradient>
    <linearGradient id="accent" x1="0" y1="0" x2="1" y2="0">
      <stop stop-color="#776490"/>
      <stop offset=".55" stop-color="#58c8e2"/>
      <stop offset="1" stop-color="#82f0d8"/>
    </linearGradient>
  </defs>
  <ellipse cx="98" cy="22" rx="120" ry="58" fill="#ffffff" opacity=".14"/>
  <ellipse cx="330" cy="250" rx="145" ry="74" fill="#82f0d8" opacity=".16"/>
  <rect x="26" y="24" width="102" height="252" rx="10" fill="url(#glass)" stroke="#a3efff" stroke-opacity=".58" stroke-width="3"/>
  <rect x="150" y="42" width="220" height="184" rx="12" fill="url(#glass)" stroke="#a3efff" stroke-opacity=".58" stroke-width="3"/>
  <rect x="45" y="58" width="64" height="12" rx="4" fill="#edfaff"/>
  <rect x="44" y="90" width="66" height="22" rx="7" fill="#12364c" stroke="#a3efff" stroke-opacity=".55"/>
  <rect x="44" y="122" width="66" height="22" rx="7" fill="url(#accent)"/>
  <rect x="44" y="154" width="66" height="22" rx="7" fill="#12364c" stroke="#a3efff" stroke-opacity=".55"/>
  <rect x="184" y="76" width="130" height="17" rx="4" fill="#edfaff"/>
  <rect x="184" y="116" width="148" height="12" rx="3" fill="#9dccd8"/>
  <rect x="184" y="148" width="108" height="12" rx="3" fill="#82f0d8"/>
  <rect x="184" y="184" width="82" height="24" rx="8" fill="url(#accent)"/>
  <path d="M164 52h192" stroke="#fff" stroke-opacity=".36" stroke-width="4"/>
</svg>
