<svg xmlns="http://www.w3.org/2000/svg" viewBox="0 0 400 300" role="img" aria-label="modern sleek theme thumbnail">
  <rect width="400" height="300" fill="#101214"/>
  <path d="M0 0h400v300H0z" fill="url(#bg)"/>
  <defs>
    <linearGradient id="bg" x1="0" y1="0" x2="1" y2="1">
      <stop stop-color="#1b1f25"/>
      <stop offset="1" stop-color="#0b0d10"/>
    </linearGradient>
  </defs>
  <circle cx="326" cy="42" r="82" fill="#4cc2ff" opacity=".16"/>
  <rect x="28" y="24" width="104" height="252" rx="8" fill="#1a1d21" stroke="#30363d" stroke-width="3"/>
  <rect x="154" y="42" width="216" height="178" rx="8" fill="#1f2328" stroke="#30363d" stroke-width="3"/>
  <rect x="50" y="58" width="58" height="11" rx="3" fill="#f2f5f8"/>
  <rect x="48" y="92" width="64" height="22" rx="4" fill="#256d9c"/>
  <rect x="48" y="124" width="64" height="22" rx="4" fill="#20242a"/>
  <rect x="48" y="156" width="64" height="22" rx="4" fill="#20242a"/>
  <rect x="184" y="76" width="128" height="16" rx="2" fill="#f2f5f8"/>
  <rect x="184" y="116" width="150" height="12" rx="2" fill="#a6b0bb"/>
  <rect x="184" y="148" width="104" height="12" rx="2" fill="#4cc2ff"/>
  <rect x="184" y="184" width="64" height="22" rx="4" fill="#256d9c"/>
</svg>
