<svg xmlns="http://www.w3.org/2000/svg" viewBox="0 0 400 300" role="img" aria-label="occult theme thumbnail">
  <defs>
    <linearGradient id="bg" x1="0" y1="0" x2="0" y2="1">
      <stop offset="0" stop-color="#020403"/>
      <stop offset=".52" stop-color="#0b1411"/>
      <stop offset="1" stop-color="#070907"/>
    </linearGradient>
    <linearGradient id="panel" x1="0" y1="0" x2="1" y2="1">
      <stop offset="0" stop-color="#16231d"/>
      <stop offset="1" stop-color="#070907"/>
    </linearGradient>
    <radialGradient id="waxGlow" cx=".75" cy=".22" r=".55">
      <stop offset="0" stop-color="#8e2f2a" stop-opacity=".42"/>
      <stop offset=".58" stop-color="#8e2f2a" stop-opacity=".12"/>
      <stop offset="1" stop-color="#8e2f2a" stop-opacity="0"/>
    </radialGradient>
    <pattern id="grid" width="34" height="28" patternUnits="userSpaceOnUse">
      <path d="M34 0H0V28" fill="none" stroke="#3f6f63" stroke-opacity=".18"/>
    </pattern>
  </defs>
  <rect width="400" height="300" fill="url(#bg)"/>
  <rect width="400" height="300" fill="url(#grid)"/>
  <rect width="400" height="300" fill="url(#waxGlow)"/>

  <path d="M18 18h364v264H18z" fill="none" stroke="#b9d36b" stroke-opacity=".22"/>
  <path d="M18 18h24M382 18h-24M18 282h24M382 282h-24" fill="none" stroke="#d1aa57" stroke-width="3" stroke-linecap="square"/>

  <rect x="28" y="30" width="96" height="238" fill="#0b1411" stroke="#3f6f63" stroke-width="3"/>
  <path d="M42 54h56M42 74h42M42 101h62M42 128h54M42 155h64M42 182h48M42 209h58" stroke="#efe6cf" stroke-opacity=".88" stroke-width="5" stroke-linecap="square"/>
  <path d="M42 54h13M42 101h13M42 155h13M42 209h13" stroke="#8e2f2a" stroke-width="5"/>
  <rect x="40" y="236" width="72" height="16" fill="#16231d" stroke="#d1aa57" stroke-opacity=".55"/>

  <rect x="154" y="48" width="210" height="178" fill="url(#panel)" stroke="#3f6f63" stroke-width="4"/>
  <path d="M174 70h170M174 204h170" stroke="#d1aa57" stroke-opacity=".55" stroke-width="2"/>
  <circle cx="259" cy="136" r="72" fill="none" stroke="#b9d36b" stroke-opacity=".45" stroke-width="3"/>
  <circle cx="259" cy="136" r="46" fill="none" stroke="#d1aa57" stroke-opacity=".62" stroke-width="3"/>
  <path d="M259 68v136M191 136h136M211 88l96 96M307 88l-96 96" stroke="#3f6f63" stroke-opacity=".72" stroke-width="3"/>
  <path d="M259 82l48 84h-96z" fill="none" stroke="#d1aa57" stroke-width="5" stroke-linejoin="round"/>
  <path d="M259 107v60M234 136h50" stroke="#efe6cf" stroke-opacity=".9" stroke-width="5" stroke-linecap="round"/>
  <circle cx="259" cy="136" r="8" fill="#8e2f2a"/>

  <g fill="#d1aa57" opacity=".72" font-family="Georgia, 'Times New Roman', serif" font-size="26" text-anchor="middle">
    <text x="174" y="258">☽</text>
    <text x="222" y="262">☉</text>
    <text x="272" y="258">☿</text>
    <text x="320" y="262">♄</text>
  </g>
  <path d="M143 252h222" stroke="#8e2f2a" stroke-opacity=".65" stroke-width="3"/>
</svg>
